#N canvas 0 25 1920 936 12;
#X obj 376 279 soundfiler;
#X floatatom 458 329 8 0 0 0 - - - 0;
#N canvas 92 117 450 278 (subpatch) 0;
#X array left 8.07117e+06 float 2;
#X coords 0 1 8.07117e+06 -1 200 140 1;
#X restore 1175 104 graph;
#X obj 374 904 *~;
#X obj 456 961 dac~;
#X obj 507 365 / 44.1;
#X floatatom 526 405 8 0 0 0 - - - 0;
#X obj 434 443 i;
#X obj 355 487 pack 0 0;
#X msg 381 559 1 \, \$1 \$2;
#X obj 425 609 line~;
#N canvas 0 22 450 278 (subpatch) 0;
#X array right 8.07117e+06 float 2;
#X coords 0 1 8.07117e+06 -1 200 140 1 0 0;
#X restore 1397 103 graph;
#X obj 595 863 *~;
#X obj 70 107 receive maintheme;
#X obj 331 712 tabread4~ left;
#X obj 559 720 tabread4~ right;
#X floatatom 416 846 5 0 0 0 - - - 0;
#X floatatom 631 825 5 0 0 0 - - - 0;
#X obj 521 569 bng 19 250 50 0 empty empty empty 0 -10 0 12 #fcfcfc #000000 #000000;
#X msg 858 220 read -resize maintheme.wav left right, f 38;
#X msg 151 510 1;
#X obj 528 455 metro;
#X obj 31 74 bng 19 250 50 0 empty empty empty 0 -10 0 12 #fcfcfc #000000 #000000;
#X obj 711 670 receive mainthemeend;
#X msg 680 745 0;
#X obj 679 669 bng 19 250 50 0 empty empty empty 0 -10 0 12 #fcfcfc #000000 #000000;
#X connect 0 0 1 0;
#X connect 1 0 5 0;
#X connect 1 0 8 0;
#X connect 3 0 4 0;
#X connect 5 0 6 0;
#X connect 6 0 7 0;
#X connect 6 0 21 1;
#X connect 7 0 8 1;
#X connect 8 0 9 0;
#X connect 9 0 10 0;
#X connect 10 0 14 0;
#X connect 10 0 15 0;
#X connect 12 0 4 1;
#X connect 13 0 19 0;
#X connect 13 0 20 0;
#X connect 13 0 21 0;
#X connect 14 0 3 0;
#X connect 15 0 12 0;
#X connect 16 0 3 1;
#X connect 17 0 12 1;
#X connect 18 0 19 0;
#X connect 19 0 0 0;
#X connect 20 0 16 0;
#X connect 20 0 17 0;
#X connect 21 0 18 0;
#X connect 22 0 19 0;
#X connect 22 0 20 0;
#X connect 22 0 21 0;
#X connect 23 0 24 0;
#X connect 24 0 17 0;
#X connect 24 0 16 0;
#X connect 25 0 24 0;
