#N canvas 0 25 1920 936 12;
#X obj 376 279 soundfiler;
#X floatatom 458 329 8 0 0 0 - - - 0;
#N canvas 92 117 450 278 (subpatch) 0;
#X array left 8.07117e+06 float 2;
#X coords 0 1 8.07117e+06 -1 200 140 1;
#X restore 1175 104 graph;
#X obj 374 904 *~;
#X obj 456 961 dac~;
#X obj 507 365 / 44.1;
#X floatatom 526 405 8 0 0 0 - - - 0;
#X obj 434 443 i;
#X obj 355 487 pack 0 0;
#X msg 381 559 1 \, \$1 \$2;
#X obj 425 609 line~;
#N canvas 0 22 450 278 (subpatch) 0;
#X array right 8.07117e+06 float 2;
#X coords 0 1 8.07117e+06 -1 200 140 1 0 0;
#X restore 1397 103 graph;
#X obj 595 863 *~;
#X obj 70 107 receive maintheme;
#X obj 331 712 tabread4~ left;
#X obj 559 720 tabread4~ right;
#X floatatom 416 846 5 0 0 0 - - - 0;
#X floatatom 631 825 5 0 0 0 - - - 0;
#X obj 521 569 bng 19 250 50 0 empty empty empty 0 -10 0 12 #fcfcfc #000000 #000000;
#X msg 858 220 read -resize maintheme.wav left right, f 38;
#X msg 151 510 1;
#X obj 528 455 metro;
#X obj 31 74 bng 19 250 50 0 empty empty empty 0 -10 0 12 #fcfcfc #000000 #000000;
#X obj 711 670 receive mainthemeend;
#X msg 680 745 0;
#X obj 679 669 bng 19 250 50 0 empty empty empty 0 -10 0 12 #fcfcfc #000000 #000000;
#X obj 1775 229 soundfiler;
#X floatatom 1791 261 8 0 0 0 - - - 0;
#X obj 1717 658 *~;
#X obj 1739 695 dac~;
#X obj 1808 289 / 44.1;
#X floatatom 1827 329 8 0 0 0 - - - 0;
#X obj 1820 360 i;
#X obj 1759 390 pack 0 0;
#X msg 1757 427 1 \, \$1 \$2;
#X obj 1792 486 line~;
#X obj 1769 661 *~;
#X floatatom 1743 628 3 0 0 0 - - - 0;
#X floatatom 1810 630 3 0 0 0 - - - 0;
#X obj 1663 79 bng 19 250 50 0 empty empty empty 0 -10 0 12 #fcfcfc #000000 #000000;
#X obj 1694 80 receive stomp;
#X msg 1761 196 read -resize stomp.wav stompleft stompright;
#X obj 1739 525 tabread4~ stompleft;
#X obj 1899 525 tabread4~ stompright;
#N canvas 0 22 450 278 (subpatch) 0;
#X array stompleft 88200 float 2;
#X coords 0 1 88200 -1 200 140 1;
#X restore 2099 108 graph;
#N canvas 0 22 450 278 (subpatch) 0;
#X array stompright 88200 float 2;
#X coords 0 1 88200 -1 200 140 1;
#X restore 2331 109 graph;
#X obj 2213 452 soundfiler;
#X floatatom 2229 484 8 0 0 0 - - - 0;
#X obj 2155 881 *~;
#X obj 2177 918 dac~;
#X obj 2246 512 / 44.1;
#X floatatom 2265 552 8 0 0 0 - - - 0;
#X obj 2258 583 i;
#X obj 2197 613 pack 0 0;
#X msg 2195 650 1 \, \$1 \$2;
#X obj 2230 709 line~;
#X obj 2207 884 *~;
#X floatatom 2181 851 3 0 0 0 - - - 0;
#X floatatom 2248 853 3 0 0 0 - - - 0;
#X obj 2101 302 bng 19 250 50 0 empty empty empty 0 -10 0 12 #fcfcfc #000000 #000000;
#X obj 2132 303 receive powerdown;
#X msg 2199 419 read -resize powerdown.wav powerdownleft powerdownright;
#N canvas 0 22 450 278 (subpatch) 0;
#X array powerdownleft 59392 float 2;
#X coords 0 1 59392 -1 200 140 1;
#X restore 2363 475 graph;
#N canvas 0 22 450 278 (subpatch) 0;
#X array powerdownright 59392 float 2;
#X coords 0 1 59392 -1 200 140 1;
#X restore 2572 475 graph;
#X obj 2177 748 tabread4~ powerdownleft;
#X obj 2353 747 tabread4~ powerdownright;
#X msg 2119 758 0.6;
#X msg 1681 535 0.6;
#X obj 1055 440 soundfiler;
#X floatatom 1071 472 8 0 0 0 - - - 0;
#X obj 997 869 *~;
#X obj 1019 906 dac~;
#X obj 1088 500 / 44.1;
#X floatatom 1107 540 8 0 0 0 - - - 0;
#X obj 1100 571 i;
#X obj 1039 601 pack 0 0;
#X msg 1037 638 1 \, \$1 \$2;
#X obj 1072 697 line~;
#X obj 1049 872 *~;
#X floatatom 1023 839 3 0 0 0 - - - 0;
#X floatatom 1090 841 3 0 0 0 - - - 0;
#X obj 943 290 bng 19 250 50 0 empty empty empty 0 -10 0 12 #fcfcfc #000000 #000000;
#X obj 974 291 receive powerup;
#X msg 1041 407 read -resize powerup.wav powerupleft powerupright;
#X obj 1019 737 tabread4~ powerupleft;
#X obj 1195 735 tabread4~ powerupright;
#N canvas 0 22 450 278 (subpatch) 0;
#X array powerupleft 82944 float 2;
#X coords 0 1 82944 -1 200 140 1;
#X restore 1193 459 graph;
#N canvas 0 22 450 278 (subpatch) 0;
#X array powerupright 82944 float 2;
#X coords 0 1 82944 -1 200 140 1;
#X restore 1402 459 graph;
#X msg 961 746 0.8;
#X connect 0 0 1 0;
#X connect 1 0 5 0;
#X connect 1 0 8 0;
#X connect 3 0 4 0;
#X connect 5 0 6 0;
#X connect 6 0 7 0;
#X connect 6 0 21 1;
#X connect 7 0 8 1;
#X connect 8 0 9 0;
#X connect 9 0 10 0;
#X connect 10 0 14 0;
#X connect 10 0 15 0;
#X connect 12 0 4 1;
#X connect 13 0 19 0;
#X connect 13 0 20 0;
#X connect 13 0 21 0;
#X connect 14 0 3 0;
#X connect 15 0 12 0;
#X connect 16 0 3 1;
#X connect 17 0 12 1;
#X connect 18 0 19 0;
#X connect 19 0 0 0;
#X connect 20 0 16 0;
#X connect 20 0 17 0;
#X connect 21 0 18 0;
#X connect 22 0 19 0;
#X connect 22 0 20 0;
#X connect 22 0 21 0;
#X connect 23 0 24 0;
#X connect 24 0 17 0;
#X connect 24 0 16 0;
#X connect 25 0 24 0;
#X connect 26 0 27 0;
#X connect 27 0 30 0;
#X connect 27 0 33 0;
#X connect 28 0 29 0;
#X connect 30 0 31 0;
#X connect 31 0 32 0;
#X connect 32 0 33 1;
#X connect 33 0 34 0;
#X connect 34 0 35 0;
#X connect 35 0 42 0;
#X connect 35 0 43 0;
#X connect 36 0 29 1;
#X connect 37 0 28 1;
#X connect 38 0 36 1;
#X connect 39 0 41 0;
#X connect 39 0 67 0;
#X connect 40 0 41 0;
#X connect 40 0 67 0;
#X connect 41 0 26 0;
#X connect 42 0 28 0;
#X connect 43 0 36 0;
#X connect 46 0 47 0;
#X connect 47 0 50 0;
#X connect 47 0 53 0;
#X connect 48 0 49 0;
#X connect 50 0 51 0;
#X connect 51 0 52 0;
#X connect 52 0 53 1;
#X connect 53 0 54 0;
#X connect 54 0 55 0;
#X connect 55 0 64 0;
#X connect 55 0 65 0;
#X connect 56 0 49 1;
#X connect 57 0 48 1;
#X connect 58 0 56 1;
#X connect 59 0 61 0;
#X connect 59 0 66 0;
#X connect 60 0 61 0;
#X connect 60 0 66 0;
#X connect 61 0 46 0;
#X connect 64 0 48 0;
#X connect 65 0 56 0;
#X connect 66 0 57 0;
#X connect 66 0 58 0;
#X connect 67 0 37 0;
#X connect 67 0 38 0;
#X connect 68 0 69 0;
#X connect 69 0 72 0;
#X connect 69 0 75 0;
#X connect 70 0 71 0;
#X connect 72 0 73 0;
#X connect 73 0 74 0;
#X connect 74 0 75 1;
#X connect 75 0 76 0;
#X connect 76 0 77 0;
#X connect 77 0 84 0;
#X connect 77 0 85 0;
#X connect 78 0 71 1;
#X connect 79 0 70 1;
#X connect 80 0 78 1;
#X connect 81 0 83 0;
#X connect 81 0 88 0;
#X connect 82 0 83 0;
#X connect 82 0 88 0;
#X connect 83 0 68 0;
#X connect 84 0 70 0;
#X connect 85 0 78 0;
#X connect 88 0 79 0;
#X connect 88 0 80 0;
